<?xml version="1.0" standalone="no"?>
<!DOCTYPE svg PUBLIC "-//W3C//DTD SVG 20010904//EN"
 "http://www.w3.org/TR/2001/REC-SVG-20010904/DTD/svg10.dtd">
<svg version="1.0" xmlns="http://www.w3.org/2000/svg"
 width="1280.000000pt" height="1129.000000pt" viewBox="0 0 1280.000000 1129.000000"
 preserveAspectRatio="xMidYMid meet">
<g transform="translate(0.000000,1129.000000) scale(0.100000,-0.100000)"
fill="#000000" stroke="none">
<path d="M7699 11263 c-27 -14 -137 -43 -275 -73 -236 -51 -270 -61 -389 -105
-68 -25 -115 -62 -115 -90 0 -14 -31 -19 -180 -31 -58 -4 -114 -17 -180 -41
-107 -39 -140 -57 -140 -78 0 -18 -34 -35 -125 -65 -72 -23 -165 -68 -165 -80
0 -15 59 -60 117 -89 66 -33 86 -58 98 -123 7 -36 7 -37 -32 -43 -129 -22
-218 -51 -295 -96 -53 -32 -135 -66 -240 -100 -88 -29 -206 -75 -261 -103 -85
-43 -106 -58 -127 -92 -14 -23 -46 -68 -72 -100 -57 -71 -59 -91 -22 -213 43
-140 79 -199 132 -216 40 -12 135 15 250 72 169 83 208 87 231 23 14 -42 5
-58 -38 -69 -20 -5 -94 -23 -166 -40 -81 -20 -147 -43 -175 -60 -25 -15 -66
-40 -93 -55 -53 -30 -87 -84 -87 -139 0 -40 26 -71 75 -87 19 -6 35 -15 35
-18 0 -4 -75 -45 -166 -91 -220 -111 -242 -113 -440 -47 -230 76 -344 99 -444
92 -103 -8 -315 -50 -344 -69 -12 -8 -44 -22 -73 -31 -69 -23 -108 -67 -123
-143 -10 -46 -20 -65 -50 -93 -20 -19 -44 -49 -53 -65 -20 -41 -47 -64 -83
-70 -27 -6 -30 -3 -47 39 -10 25 -33 65 -51 88 -18 24 -45 66 -59 94 -29 57
-53 80 -157 149 l-71 48 -160 17 c-122 14 -171 24 -207 42 -72 36 -84 60 -83
164 1 49 5 92 9 95 20 20 415 45 456 29 16 -6 139 -20 272 -30 260 -21 346
-36 436 -76 32 -14 93 -32 135 -40 84 -15 336 -31 408 -26 43 4 45 5 45 36 0
57 -37 76 -240 126 -109 27 -253 68 -300 86 -8 3 46 27 120 53 219 77 267 110
261 182 -2 34 -63 75 -238 161 -197 96 -259 118 -573 208 -113 32 -258 77
-322 100 l-118 42 0 33 c0 38 -22 65 -51 65 -26 0 -59 18 -59 32 0 6 -12 34
-26 63 l-26 51 -124 23 c-177 34 -279 27 -375 -23 -58 -31 -204 -76 -246 -76
-7 0 -13 8 -13 19 0 27 -23 42 -72 48 -51 7 -105 32 -132 62 -27 30 -101 49
-235 62 -148 14 -253 5 -359 -32 -81 -27 -101 -40 -102 -64 0 -6 -33 -44 -72
-85 -55 -57 -79 -91 -98 -139 -14 -35 -34 -69 -45 -75 -11 -6 -38 -22 -60 -37
-22 -14 -69 -41 -105 -59 -36 -18 -66 -33 -67 -34 -1 -1 -7 -53 -13 -116 -17
-185 -13 -176 -73 -188 -78 -16 -106 -29 -116 -55 -10 -27 -36 -37 -93 -37
-38 0 -78 -29 -78 -57 0 -30 -32 -74 -65 -87 -40 -17 -68 -58 -92 -135 -20
-62 -61 -111 -93 -111 -40 0 -60 -18 -60 -55 0 -18 6 -40 14 -47 8 -8 63 -27
122 -42 60 -15 116 -30 124 -33 8 -3 -44 -20 -116 -38 -145 -36 -153 -39 -241
-101 l-61 -44 -6 38 c-4 20 -18 122 -31 226 -14 104 -27 191 -28 193 -4 4 -15
-689 -24 -1590 -6 -671 12 -3631 26 -4322 9 -398 23 -513 35 -290 8 148 20
201 53 222 21 14 27 13 81 -13 73 -37 102 -80 173 -255 30 -73 55 -136 57
-141 5 -12 -75 -58 -159 -89 -61 -24 -85 -39 -110 -70 -38 -48 -75 -54 -85
-11 -14 65 -21 69 -30 17 -9 -56 -10 -33 4 -545 6 -206 11 -672 11 -1035 1
-363 4 -792 8 -954 l6 -293 501 5 c508 5 577 10 709 49 l38 11 -24 21 c-33 28
-57 105 -51 164 33 332 40 373 98 551 l24 75 7 -105 c4 -57 5 -234 3 -392 l-3
-288 28 31 28 31 -7 122 c-6 107 -5 124 10 136 9 8 18 12 20 10 3 -2 19 -66
36 -142 33 -146 63 -241 81 -263 6 -8 20 -14 30 -14 17 0 17 3 -2 68 -32 110
-52 209 -46 226 4 11 19 16 45 16 22 0 44 6 50 13 12 14 46 176 39 184 -3 2
-22 -25 -42 -61 -20 -36 -40 -68 -45 -71 -12 -8 -75 158 -103 275 -44 177 -75
330 -68 333 9 5 322 -12 350 -19 24 -5 24 -5 18 -112 -4 -59 -10 -120 -13
-137 l-7 -30 26 24 c14 12 30 20 36 16 35 -21 65 -141 77 -306 9 -135 1 -180
-45 -233 -47 -54 -68 -102 -54 -125 22 -35 97 -44 413 -48 168 -2 368 0 445 4
l140 8 -1 30 c-1 17 -5 71 -9 121 -8 96 0 168 15 129 4 -11 11 -45 14 -75 11
-83 14 -89 64 -114 183 -91 769 -123 2072 -112 903 8 1018 12 1034 40 6 10 35
53 64 94 l53 75 -102 -7 c-106 -7 -154 -21 -154 -46 0 -8 13 -21 28 -28 33
-16 33 -45 0 -50 -38 -6 -63 31 -63 92 0 52 1 55 27 58 22 2 34 15 60 63 19
33 43 68 55 78 20 16 21 16 54 -13 19 -16 52 -34 74 -41 22 -7 46 -19 53 -28
20 -23 37 -78 37 -121 0 -74 51 -107 213 -138 80 -15 156 -17 592 -16 275 0
517 4 537 8 26 5 35 11 32 21 -4 9 8 21 34 34 38 20 40 20 45 2 4 -15 18 -20
83 -25 235 -19 992 -28 4207 -52 l868 -6 -6 609 c-3 334 -8 658 -11 720 l-6
112 -40 -20 c-108 -55 -217 -89 -285 -89 -90 0 -102 4 -428 132 -370 145 -524
196 -660 216 l-110 15 -74 -48 c-90 -58 -182 -96 -416 -170 -354 -112 -432
-139 -584 -203 -209 -88 -285 -101 -481 -83 -78 7 -262 32 -408 56 -147 23
-282 45 -301 48 -27 3 -64 -9 -165 -54 -72 -32 -149 -68 -170 -80 -53 -29
-275 -103 -416 -139 -186 -47 -376 -76 -680 -101 l-145 -12 -83 -49 c-140 -82
-247 -132 -573 -269 -395 -166 -426 -177 -446 -156 -42 42 -59 239 -73 887 -5
250 -14 461 -20 483 -18 61 -36 67 -170 50 -147 -18 -162 -25 -74 -34 94 -9
139 -31 168 -83 36 -62 46 -130 46 -316 l0 -170 -32 0 c-61 0 -64 8 -45 108 9
49 17 94 17 100 0 7 -17 30 -37 53 -35 39 -37 45 -43 126 -4 73 -8 88 -29 104
-13 10 -36 19 -52 19 -26 0 -29 -4 -29 -30 0 -23 -11 -41 -39 -69 -22 -21 -41
-52 -45 -70 -3 -17 -9 -45 -12 -62 l-6 -31 -22 21 c-12 12 -29 21 -38 21 -33
0 -41 27 -36 125 4 66 10 102 23 121 19 30 13 39 -31 48 l-31 7 1 -638 c1
-569 -1 -646 -16 -711 -20 -84 -50 -140 -84 -152 -38 -15 -215 40 -236 73 -4
7 -8 29 -8 49 0 49 -25 62 -156 83 -101 16 -144 34 -144 60 0 8 -11 22 -25 31
-15 10 -41 49 -62 95 -36 79 -66 106 -84 78 -5 -8 -9 -42 -9 -76 0 -50 -4 -67
-20 -83 -28 -28 -50 -26 -50 5 0 18 -9 29 -38 44 -21 11 -44 27 -52 36 -31 37
24 314 86 435 84 165 447 703 645 956 51 67 117 152 144 190 28 37 68 80 89
95 21 14 48 43 58 64 11 21 44 70 72 109 29 39 80 117 112 174 32 57 98 153
146 213 51 64 109 151 139 210 35 68 60 104 78 114 122 62 284 374 454 870 86
251 167 475 186 514 30 63 55 52 242 -100 90 -73 184 -149 208 -170 l45 -38
32 -198 33 -198 70 -68 c39 -37 94 -81 122 -99 33 -20 56 -43 65 -63 17 -42
209 -272 232 -279 9 -3 58 -12 107 -21 134 -23 221 -43 305 -70 104 -32 197
-36 224 -9 33 32 15 138 -29 174 -10 8 -35 40 -56 72 -42 61 -46 63 -169 87
-30 6 -83 26 -118 44 -60 30 -63 33 -58 62 3 16 8 84 12 151 7 117 6 123 -20
179 -17 37 -38 124 -60 244 -48 261 -75 331 -130 331 -42 0 -68 24 -92 84 -13
33 -22 61 -19 64 9 9 195 -39 237 -62 24 -12 93 -53 153 -91 149 -92 155 -95
196 -95 45 0 63 20 61 68 -1 33 -16 55 -44 64 -5 2 -13 32 -18 67 -10 73 -15
81 -61 90 -23 5 -38 16 -52 41 -33 62 -90 110 -173 150 -87 42 -107 63 -118
123 -11 57 -24 80 -57 99 -22 13 -29 24 -29 47 0 29 -3 31 -72 51 -203 59
-357 112 -381 130 -15 12 -39 41 -53 66 -14 24 -31 44 -38 44 -7 0 -60 -9
-118 -19 -115 -21 -182 -46 -212 -80 -19 -21 -19 -23 -1 -53 11 -20 20 -58 23
-102 4 -62 1 -75 -18 -98 -29 -37 -67 -38 -76 -2 -9 36 3 194 21 279 36 168
98 353 166 492 40 83 77 147 89 153 30 16 60 3 72 -30 12 -35 40 -45 163 -60
50 -6 100 -13 113 -16 21 -4 23 -1 20 23 -3 30 -20 36 -163 60 -41 6 -52 13
-63 36 -8 15 -24 32 -36 37 -44 16 -43 63 0 74 27 7 30 26 13 75 -11 32 -52
61 -86 61 -32 0 -63 29 -63 58 1 66 114 274 164 301 16 9 61 44 100 79 94 82
172 136 403 276 l193 116 395 0 395 0 9 -22 c14 -36 42 -55 100 -67 47 -10
302 -100 341 -121 8 -5 23 -30 32 -57 10 -28 36 -67 61 -94 41 -41 49 -60 92
-193 51 -163 69 -191 180 -276 30 -23 68 -64 84 -91 37 -60 68 -80 129 -86 44
-4 45 -3 22 9 -30 16 -92 96 -84 109 9 15 87 10 121 -9 18 -9 106 -67 196
-128 124 -84 186 -119 253 -143 155 -56 333 -84 369 -58 19 15 19 16 -8 28
-36 16 -34 25 8 50 19 12 35 24 35 28 0 4 -5 34 -11 66 -22 118 -54 151 -200
200 -124 43 -186 89 -252 191 -30 46 -35 49 -80 52 -48 3 -48 4 -45 35 2 25 8
33 26 35 14 2 27 14 33 30 6 15 24 38 40 52 19 16 32 38 36 62 5 34 2 40 -37
75 -23 21 -50 56 -60 79 -22 51 -46 70 -189 149 -110 61 -114 65 -88 74 24 9
27 16 27 54 0 77 -14 99 -93 147 -39 24 -91 58 -113 76 -23 18 -66 43 -95 54
-86 33 -97 41 -113 81 l-16 39 -62 0 c-35 -1 -82 -5 -106 -9 -23 -5 -44 -6
-46 -2 -2 3 2 20 9 38 16 37 11 37 345 58 398 26 494 40 503 75 3 14 14 20 31
20 21 0 26 5 26 24 0 31 -25 40 -200 66 -160 25 -176 28 -215 47 -29 15 -64
50 -65 66 0 4 40 7 89 7 105 0 121 5 121 35 0 28 -25 51 -80 70 -24 8 -49 20
-57 26 -19 17 -16 47 6 59 58 30 368 -8 611 -76 398 -111 402 -113 420 -160 6
-16 27 -33 57 -46 41 -18 60 -20 147 -15 110 6 224 34 265 64 15 12 29 35 33
57 7 32 3 47 -19 88 -32 58 -76 87 -176 113 -80 21 -108 41 -153 112 -38 59
-72 71 -89 31 -9 -20 -17 -23 -55 -21 -25 2 -70 11 -100 20 l-55 18 -3 53 c-5
79 13 100 85 104 55 3 58 4 61 31 4 37 -42 175 -73 217 -44 60 -185 136 -307
165 -154 37 -579 38 -923 2 -192 -20 -209 -18 -321 39 -80 40 -102 56 -113 81
-8 19 -26 36 -42 42 -18 6 -33 22 -43 44 -12 31 -23 38 -97 65 -75 26 -214 59
-336 77 -36 6 -43 10 -43 30 0 33 15 41 110 58 47 8 137 25 200 37 132 25 246
23 298 -4 21 -11 40 -33 55 -64 19 -41 32 -52 102 -89 65 -35 89 -42 125 -40
32 1 44 6 42 16 -7 33 57 70 169 96 l75 18 135 -71 c195 -103 251 -117 473
-115 98 1 180 4 183 6 2 3 -1 34 -8 71 -13 74 -24 86 -121 129 -92 41 -169 96
-237 168 -41 44 -82 78 -116 94 -31 14 -66 42 -84 64 -24 31 -46 44 -95 61
-53 17 -65 25 -71 48 -3 15 -24 84 -47 154 -32 103 -44 128 -61 134 -12 3 -66
35 -119 71 -143 95 -258 123 -509 123 -105 0 -141 -4 -192 -21 -34 -11 -67
-25 -72 -29 -6 -5 -60 -4 -120 1 -61 5 -193 16 -295 24 -186 14 -260 29 -242
47 17 17 83 27 393 58 167 16 353 37 413 46 99 15 111 19 142 50 18 19 40 34
47 34 31 0 40 27 31 97 l-9 67 -65 26 c-122 50 -185 68 -330 94 -211 39 -507
113 -566 141 -44 21 -56 34 -77 78 -31 65 -40 73 -102 87 -28 6 -67 24 -87 40
-37 30 -38 30 -160 29 -108 -2 -128 -5 -169 -26z m84 -829 c53 -10 85 -20 79
-26 -5 -5 -78 -29 -162 -53 -141 -41 -155 -44 -176 -30 -13 8 -28 32 -33 52
-15 52 -14 60 7 73 22 14 170 6 285 -16z m-119 -274 c52 -19 24 -81 -50 -111
-30 -13 -54 -26 -54 -29 0 -17 -72 -79 -99 -85 -33 -7 -45 -30 -35 -69 8 -32
41 -54 94 -62 58 -9 72 -33 53 -90 -8 -24 -18 -44 -21 -44 -3 0 -19 12 -35 28
l-28 27 -325 1 c-343 2 -378 4 -489 35 l-70 19 -17 -20 c-23 -28 -68 -40 -151
-40 -79 0 -207 19 -207 31 0 17 74 60 290 168 l225 112 170 19 c209 24 265 34
380 71 50 15 108 33 130 38 54 12 208 13 239 1z m821 -294 c91 -17 170 -40
188 -54 7 -6 50 -31 97 -56 51 -27 79 -47 70 -50 -8 -3 -52 -19 -98 -36 -146
-53 -415 -110 -520 -110 -49 0 -49 -7 -5 139 26 84 57 131 88 131 8 0 20 11
25 25 11 30 37 32 155 11z m-618 -86 c20 -38 0 -178 -38 -268 -17 -40 -22 -43
-51 -40 -27 2 -37 11 -57 48 -26 48 -38 59 -85 76 -42 15 -43 31 -3 54 34 20
87 80 87 98 0 13 42 49 65 55 40 10 69 2 82 -23z m1426 -96 c62 -20 62 -39 1
-30 -26 3 -69 6 -95 6 -46 0 -49 1 -49 26 0 26 1 27 48 20 26 -3 68 -13 95
-22z m-6322 -26 c25 -11 38 -24 41 -42 6 -32 -3 -33 -146 -10 -108 17 -126 25
-126 57 0 19 5 19 98 15 54 -3 113 -12 133 -20z m6615 -94 c27 -9 56 -23 64
-31 13 -13 12 -17 -10 -35 -27 -22 -60 -21 -170 3 -52 11 -54 13 -27 21 16 6
29 19 33 34 8 29 38 31 110 8z m-8394 -159 c2 -16 -74 -55 -107 -55 l-30 1 35
29 c44 37 100 50 102 25z m772 -62 c17 -4 35 -17 45 -35 28 -49 102 -70 266
-76 163 -5 221 6 235 44 13 33 55 33 64 0 3 -14 7 -91 7 -171 2 -172 -2 -181
-96 -231 -32 -18 -72 -49 -90 -69 -27 -33 -39 -39 -90 -46 -35 -5 -71 -17 -89
-31 -22 -16 -49 -23 -94 -26 -54 -4 -65 -8 -74 -27 -11 -23 -35 -35 -75 -35
-15 0 -23 8 -27 28 -20 95 -39 306 -43 486 -6 202 -5 209 13 202 11 -4 32 -10
48 -13z m-924 -33 c0 -6 -18 -29 -39 -53 -21 -23 -55 -70 -76 -105 -21 -37
-47 -67 -61 -72 -26 -10 -29 -21 -14 -50 23 -43 153 -35 385 25 117 30 137 33
200 25 58 -7 74 -13 93 -36 20 -23 22 -29 9 -41 -23 -23 -81 -32 -237 -39
-276 -11 -586 -101 -676 -195 -16 -17 -38 -49 -49 -72 -14 -30 -29 -45 -51
-52 -47 -15 -62 -32 -81 -92 -13 -42 -15 -60 -6 -83 14 -37 -3 -54 -117 -110
-47 -23 -116 -62 -155 -85 -38 -24 -83 -47 -99 -51 l-29 -7 6 54 c4 30 12 148
18 262 l12 209 26 11 c118 49 203 97 304 171 64 47 150 106 190 131 39 24 94
66 120 94 76 78 327 202 327 161z m5761 -98 c-15 -28 -29 -31 -90 -21 -102 16
-80 33 54 41 49 4 49 4 36 -20z m-423 -164 c-6 -24 -21 -53 -35 -65 -21 -20
-35 -23 -105 -23 -69 0 -79 2 -74 16 3 9 6 23 6 32 0 33 18 43 111 61 52 11
97 20 100 20 4 1 2 -18 -3 -41z m764 6 c74 -24 70 -48 -18 -92 -23 -12 -44
-28 -48 -37 -3 -9 -6 -50 -6 -91 0 -65 -2 -74 -19 -74 -55 0 -162 148 -177
247 -6 38 -4 42 17 48 13 3 42 9 64 15 48 11 123 5 187 -16z m-478 -89 c19
-39 15 -55 -15 -55 -16 0 -19 7 -19 45 0 54 12 57 34 10z m-144 -54 c0 -28
-69 -40 -130 -22 -21 7 -15 10 40 23 62 14 90 14 90 -1z m-270 -62 c48 -14
123 -24 251 -32 l181 -12 28 -78 c37 -105 68 -141 175 -200 50 -27 105 -60
124 -73 l34 -23 -43 -11 c-23 -6 -108 -27 -189 -46 l-146 -34 95 5 c130 8 264
30 357 60 99 31 125 31 182 -1 101 -58 111 -70 111 -127 0 -78 -23 -154 -96
-316 -70 -158 -76 -165 -149 -214 -27 -18 -56 -43 -66 -57 -28 -39 -55 -160
-105 -465 -26 -154 -48 -281 -49 -283 -6 -6 -140 66 -158 85 -9 10 -27 30 -38
45 -15 20 -41 34 -92 49 -142 43 -200 84 -255 182 -64 113 -122 135 -512 191
l-224 33 -36 94 c-20 52 -39 102 -42 111 -6 14 -12 15 -44 7 -57 -16 -76 -6
-122 66 -23 37 -42 70 -42 75 0 21 -52 40 -164 60 -185 33 -198 43 -104 74 52
18 56 18 173 -3 270 -48 555 -114 705 -163 46 -15 75 -32 100 -59 32 -34 50
-42 210 -89 140 -41 195 -52 275 -57 126 -7 119 5 -30 47 -145 42 -167 54
-159 84 5 20 0 25 -26 34 -17 6 -64 14 -105 18 -79 7 -95 17 -44 28 53 10 130
7 280 -13 227 -30 282 -34 327 -21 50 13 53 31 17 80 -59 80 -202 190 -355
273 -47 25 -121 70 -165 100 -67 44 -80 58 -83 83 -3 40 -18 96 -49 182 l-25
73 -73 -7 c-66 -6 -78 -4 -131 21 -102 47 -136 55 -377 84 -208 26 -264 38
-288 62 -20 20 -25 39 -10 39 5 0 132 11 282 25 151 13 292 26 314 28 22 2
100 4 173 5 110 2 146 -2 202 -19z m-3350 -60 c85 -13 104 -21 134 -56 14 -16
69 -41 161 -75 120 -44 153 -52 232 -56 79 -4 93 -7 98 -23 10 -30 0 -36 -82
-43 -142 -13 -218 -36 -229 -68 -3 -11 -26 -29 -51 -40 -46 -20 -58 -38 -68
-99 -3 -24 -17 -47 -40 -68 -22 -20 -33 -36 -28 -44 5 -7 20 -30 34 -52 15
-22 30 -56 33 -76 l6 -36 -67 -18 c-119 -31 -184 -68 -259 -147 -63 -66 -83
-99 -143 -228 -21 -45 -105 -81 -208 -88 -93 -6 -112 6 -159 101 -20 39 -51
92 -69 117 -63 85 -120 254 -131 380 l-7 76 89 64 c49 36 157 117 239 181 214
165 286 216 339 238 40 18 46 24 46 50 0 28 3 30 28 26 15 -2 61 -10 102 -16z
m5152 -31 c4 -7 8 -27 8 -44 0 -41 17 -57 179 -169 l139 -96 -18 -63 c-10 -35
-56 -148 -103 -252 -114 -254 -172 -411 -193 -522 -21 -110 -23 -112 -161
-167 -51 -20 -122 -58 -160 -84 -235 -163 -312 -211 -356 -220 -23 -6 -42 -9
-44 -8 -4 5 36 285 51 347 38 165 141 405 373 873 90 180 163 329 163 332 0 2
9 25 20 50 20 47 21 47 57 42 20 -4 40 -12 45 -19z m493 -2 c31 -22 4 -43 -94
-72 -47 -15 -95 -33 -107 -41 -28 -18 -54 -7 -54 22 0 21 -41 65 -61 65 -4 0
-20 6 -36 13 -25 11 -12 13 107 17 74 3 156 7 181 8 26 1 53 -4 64 -12z m1073
-45 c19 -11 9 -16 -63 -31 -33 -7 -86 -21 -117 -31 -50 -16 -72 -17 -159 -9
-105 9 -135 22 -123 53 3 9 25 21 47 26 48 12 391 5 415 -8z m-2029 -87 c-13
-16 -79 -20 -79 -4 0 26 28 64 55 76 30 12 30 12 33 -22 2 -20 -2 -42 -9 -50z
m-5911 -9 c44 -11 72 -49 72 -100 0 -56 -21 -110 -49 -125 -27 -14 -26 -23 2
-35 29 -13 33 -53 9 -107 -16 -37 -26 -46 -78 -67 -32 -13 -78 -35 -102 -48
-31 -17 -75 -28 -160 -40 -153 -20 -256 -14 -307 17 l-37 23 23 18 c69 52 287
143 371 155 70 10 71 10 53 45 -15 28 -19 30 -56 24 -46 -8 -45 -13 -29 130
16 146 0 132 142 123 68 -4 134 -10 146 -13z m7487 -19 c70 -18 127 -26 191
-26 122 0 151 -11 174 -66 12 -27 30 -49 49 -58 21 -11 35 -30 49 -68 27 -77
46 -148 39 -154 -3 -4 -41 1 -84 10 -67 13 -82 20 -108 51 -38 44 -76 53 -420
101 -450 61 -495 77 -495 175 0 46 1 48 33 54 65 10 135 13 302 9 141 -2 187
-7 270 -28z m-675 -16 c0 -11 -5 -20 -10 -20 -15 0 -80 28 -80 34 0 4 20 6 45
6 38 0 45 -3 45 -20z m-7230 -25 c28 -34 -9 -54 -67 -39 -30 8 -29 16 5 36 34
22 46 22 62 3z m2931 -315 c44 0 79 -4 79 -8 0 -22 -200 -52 -254 -38 -20 5
-26 13 -26 33 0 26 0 26 61 19 34 -3 97 -6 140 -6z m853 -56 c71 -9 140 -20
154 -25 23 -9 24 -12 11 -25 -9 -8 -58 -33 -110 -55 -87 -38 -99 -41 -170 -37
-87 4 -111 17 -130 75 -9 29 -8 37 6 53 30 33 67 35 239 14z m3706 -40 c170
-26 200 -35 200 -59 0 -22 -61 -29 -188 -21 -149 8 -245 47 -228 91 7 20 25
19 216 -11z m-4330 -45 c47 -17 93 -33 103 -36 31 -10 19 -26 -15 -19 -18 4
-109 9 -203 12 -192 5 -215 9 -215 29 0 18 11 24 62 34 92 19 178 12 268 -20z
m1104 -5 c16 -6 23 -54 8 -54 -13 0 -125 20 -145 26 -18 6 -18 6 0 20 18 14
108 19 137 8z m4284 -28 c5 -26 -24 -46 -64 -46 -50 0 -64 9 -64 42 l0 29 62
-3 c53 -3 63 -6 66 -22z m-549 -65 c39 -11 35 -27 -15 -55 -31 -17 -51 -23
-62 -17 -10 5 -46 11 -80 15 -35 4 -75 11 -88 16 -26 10 -32 35 -11 43 18 8
228 6 256 -2z m-469 -52 c166 -13 167 -13 185 -55 10 -24 24 -38 46 -46 l31
-11 -28 -24 c-114 -95 -201 -157 -256 -183 -72 -34 -192 -56 -355 -66 -95 -5
-113 -4 -113 8 0 8 25 64 55 124 30 60 64 136 75 169 11 32 27 70 36 83 18 27
0 27 324 1z m-8660 -55 c6 -14 10 -59 10 -100 0 -66 -2 -74 -19 -74 -31 0 -42
24 -48 114 l-6 86 27 0 c19 0 29 -7 36 -26z m996 -9 c20 -19 63 -19 257 2 134
14 171 15 245 4 48 -6 96 -14 107 -17 39 -10 209 -243 260 -357 33 -72 76
-286 78 -384 2 -74 0 -84 -23 -108 -14 -15 -42 -35 -62 -46 -23 -12 -38 -27
-40 -41 -2 -17 -19 -31 -61 -51 -63 -30 -82 -58 -93 -140 l-6 -43 233 -17
c236 -18 378 -38 422 -58 17 -8 39 -43 75 -118 58 -123 64 -148 50 -216 l-11
-49 -19 42 c-23 48 -77 79 -188 107 -145 36 -188 54 -208 89 -16 27 -34 38
-108 64 -94 34 -250 64 -424 83 -111 11 -227 7 -399 -17 -58 -8 -131 -14 -163
-14 -49 0 -58 3 -58 18 1 22 26 53 66 80 24 17 78 28 235 52 295 44 269 36
269 77 0 19 -7 66 -16 104 -19 83 -28 89 -138 89 -103 0 -369 -18 -511 -35
-144 -18 -217 -36 -288 -71 -28 -15 -85 -37 -125 -50 -41 -12 -82 -30 -93 -40
-28 -25 -24 -62 11 -94 17 -15 30 -31 30 -34 0 -9 -39 -23 -140 -53 -111 -32
-157 -57 -180 -96 l-20 -32 0 342 0 342 103 76 c56 41 135 99 176 128 41 28
76 57 78 63 2 6 -16 19 -39 28 l-43 17 35 27 c19 15 57 50 85 79 30 31 79 65
123 87 40 20 99 61 132 91 68 63 111 76 175 54 29 -10 41 -20 43 -37 6 -37
-71 -103 -181 -155 -93 -44 -94 -46 -101 -86 -6 -40 -29 -73 -57 -84 -10 -3
-4 -14 21 -35 30 -26 33 -32 21 -46 -19 -22 0 -21 48 4 70 35 95 77 103 175 3
31 6 33 101 76 36 16 64 41 107 95 32 40 63 89 70 108 13 41 15 42 36 21z
m2524 -170 c0 -20 -34 -65 -49 -65 -23 0 -58 37 -45 49 14 14 94 27 94 16z
m830 -55 c12 -22 45 -26 98 -11 l32 10 0 -39 c0 -48 -22 -65 -96 -75 -48 -6
-54 -4 -78 22 -15 15 -36 43 -48 62 -25 39 -15 51 44 51 27 0 40 -5 48 -20z
m-970 -65 c-9 -11 -34 -15 -93 -15 -49 0 -77 4 -71 9 14 14 42 19 113 20 55 1
62 -1 51 -14z m1643 -67 l132 -63 110 1 c61 0 127 5 148 12 40 11 42 10 49
-31 3 -17 -17 -23 -160 -52 -265 -55 -319 -78 -351 -151 -39 -86 -70 -50 -105
122 -14 65 -29 132 -35 147 -15 38 -14 84 2 90 24 8 80 -12 210 -75z m4004 12
c17 -51 16 -125 -2 -140 -16 -13 -134 -15 -147 -2 -12 12 38 144 63 164 37 28
72 20 86 -22z m-5402 -50 c-7 -22 -60 -50 -180 -96 -39 -15 -54 -27 -68 -57
-12 -23 -26 -37 -37 -37 -26 0 -29 -9 -34 -85 -4 -55 -14 -85 -54 -168 -28
-56 -66 -121 -86 -144 -45 -52 -121 -99 -183 -114 -98 -22 -121 -39 -108 -80
8 -25 60 -33 155 -25 144 12 223 49 250 118 19 47 48 76 110 110 30 16 73 40
95 52 22 13 90 38 151 56 77 22 123 41 148 62 34 28 36 33 36 89 0 32 2 59 4
59 16 0 252 53 291 65 33 11 108 18 225 22 212 7 243 -1 253 -63 13 -76 9 -93
-25 -114 -18 -11 -102 -36 -188 -56 -195 -46 -235 -62 -244 -100 -14 -58 -29
-84 -62 -103 -18 -11 -63 -60 -99 -109 -69 -95 -78 -101 -206 -142 -72 -23
-103 -48 -115 -95 -17 -65 5 -97 99 -142 91 -44 165 -67 223 -67 45 -1 58 4
110 42 140 101 247 152 345 166 l46 7 7 -47 c19 -142 2 -314 -45 -439 -21 -56
-23 -83 -29 -410 -8 -382 -11 -407 -61 -424 -36 -12 -32 -23 15 -45 47 -22 53
-53 71 -391 22 -408 36 -513 101 -785 10 -40 18 -133 21 -240 l5 -175 47 -80
c26 -44 53 -93 60 -110 15 -33 29 -322 30 -643 l1 -184 -60 -88 c-33 -48 -119
-150 -191 -226 -72 -77 -149 -167 -171 -201 -23 -35 -45 -63 -50 -63 -5 0 -19
6 -31 14 -12 8 -41 19 -64 24 l-43 10 1 -67 c0 -36 4 -88 8 -114 10 -58 -1
-72 -58 -82 -63 -11 -76 -33 -76 -134 0 -47 -6 -99 -12 -116 -7 -16 -17 -49
-23 -73 -13 -51 -38 -69 -125 -89 -92 -21 -100 -31 -73 -96 45 -111 30 -154
-36 -103 -19 14 -37 26 -40 26 -9 0 -7 -41 8 -108 7 -34 10 -61 7 -59 -3 1
-81 40 -173 85 -183 90 -223 118 -233 162 -3 15 -17 36 -31 44 -22 15 -24 22
-24 101 0 60 -6 103 -20 142 -27 78 -38 245 -42 636 l-3 328 25 12 c20 10 26
21 28 54 3 42 3 42 -35 45 -78 6 -83 61 -67 827 21 1027 35 1221 90 1282 24
26 33 24 100 -20 73 -49 114 -61 114 -35 0 26 -12 41 -35 46 -15 3 -20 11 -20
38 0 34 -2 35 -40 38 -22 2 -44 7 -48 11 -5 5 1 27 12 49 22 44 17 52 -34 52
-33 0 -69 18 -84 42 -7 11 -15 61 -18 111 -6 80 -4 90 10 84 9 -3 35 -11 59
-17 24 -6 111 -45 193 -85 194 -95 215 -100 396 -96 l66 1 13 57 c11 53 11 58
-6 68 -10 5 -26 19 -35 30 -10 11 -51 55 -92 97 -46 48 -88 104 -112 150 -57
109 -86 141 -156 173 -53 23 -177 53 -331 80 -37 6 -38 7 -38 50 0 61 33 86
152 115 113 28 146 43 154 74 3 12 23 34 44 47 22 13 40 27 40 30 0 14 -276
121 -394 152 -75 20 -135 42 -146 53 -10 11 -44 98 -76 194 -72 224 -111 305
-217 463 -85 126 -90 139 -88 217 1 39 -5 52 -33 67 -35 19 116 94 339 168
141 46 258 94 395 160 183 88 241 110 315 118 38 3 49 -5 40 -33z m-499 -69
c-9 -10 -48 -33 -87 -51 -56 -26 -73 -30 -84 -20 -8 7 -15 21 -15 30 0 23 95
58 159 59 42 1 43 0 27 -18z m-546 -251 c-20 -13 -67 -13 -75 0 -4 6 12 10 42
10 35 0 44 -3 33 -10z m3434 -379 c112 -21 143 -34 116 -51 -22 -14 -179 -48
-254 -56 l-66 -7 -10 30 c-7 19 -29 40 -65 62 -30 18 -52 38 -48 44 9 14 196
2 327 -22z m-1455 -73 c-25 -65 -50 -102 -74 -107 -42 -8 13 131 59 149 35 15
36 12 15 -42z m5101 -138 c-20 -13 -67 -13 -75 0 -4 6 12 10 42 10 35 0 44 -3
33 -10z m-3913 -45 c87 -17 324 -83 336 -94 4 -4 1 -35 -7 -69 -23 -99 3 -168
105 -276 92 -99 136 -124 285 -165 63 -17 94 -54 94 -110 -1 -73 -17 -95 -95
-137 -64 -33 -75 -36 -131 -31 -78 6 -91 13 -63 36 48 38 4 61 -120 61 -85 1
-138 13 -162 39 -23 25 -59 35 -223 61 -70 11 -138 27 -149 35 -20 14 -18 16
44 44 35 17 143 51 239 76 96 25 178 49 183 54 4 4 -70 11 -165 14 -198 7
-248 17 -248 49 0 12 9 32 21 44 l21 22 -79 17 c-88 19 -110 32 -73 42 22 6
23 7 4 14 -35 14 -112 10 -128 -7 -22 -21 -20 -42 9 -100 18 -37 37 -57 75
-79 28 -16 49 -34 47 -39 -6 -17 -69 -28 -122 -23 -27 3 -93 19 -146 36 -115
37 -168 40 -176 11 -5 -18 -14 -20 -97 -20 -50 0 -97 -4 -105 -9 -24 -15 -3
-42 49 -64 28 -11 50 -24 50 -29 0 -9 -32 -18 -103 -27 l-52 -7 55 -7 c30 -3
118 -10 196 -16 163 -12 270 -33 315 -64 40 -27 109 -141 109 -179 0 -23 -4
-28 -24 -28 -74 0 -468 62 -507 80 -13 6 -32 24 -41 40 -10 18 -42 42 -86 64
-41 21 -73 44 -77 55 -7 24 11 273 26 356 19 105 70 245 95 261 33 22 188 49
514 88 59 7 224 -3 307 -19z m689 -330 c119 -37 170 -65 193 -107 13 -23 13
-28 -3 -52 -27 -43 -59 -50 -156 -37 -120 17 -125 19 -137 51 -11 30 -18 34
-106 65 -55 19 -67 37 -43 64 9 10 16 27 16 38 0 11 2 22 5 25 10 10 121 -13
231 -47z m-5627 -396 c6 -18 11 -53 11 -80 0 -61 -23 -80 -122 -104 -93 -23
-156 -52 -163 -76 -10 -30 25 -138 49 -151 12 -7 57 -15 101 -18 l79 -5 21
-52 c11 -29 25 -53 32 -53 6 0 19 20 29 45 18 49 29 56 39 25 10 -32 43 -48
156 -75 161 -40 234 -70 419 -176 47 -26 120 -62 163 -79 97 -38 124 -55 131
-84 4 -16 27 -35 73 -59 38 -20 100 -62 139 -94 291 -237 409 -351 472 -456
18 -30 55 -107 82 -172 27 -65 61 -136 76 -159 l27 -41 -28 -400 c-15 -220
-29 -453 -29 -519 -1 -111 -2 -119 -23 -134 -22 -14 -23 -21 -23 -151 0 -75
-7 -197 -15 -271 -9 -74 -18 -190 -22 -256 -5 -103 -3 -125 11 -145 20 -29 20
-63 0 -125 -9 -27 -19 -96 -22 -154 l-7 -105 -27 -3 c-26 -3 -28 -1 -28 32 0
40 -8 47 -70 61 -45 10 -58 24 -102 103 -22 42 -75 66 -228 107 -132 35 -184
56 -255 105 -54 37 -79 44 -95 26 -13 -17 -33 -153 -28 -200 l3 -31 17 30 c9
17 19 51 23 77 14 94 56 104 74 18 6 -28 12 -81 12 -118 1 -37 4 -80 8 -97 5
-24 10 -12 24 66 26 137 40 147 34 24 -6 -109 -17 -151 -47 -172 -11 -8 -23
-28 -28 -46 -5 -18 -19 -37 -33 -44 -34 -18 -100 -16 -128 3 -20 14 -22 22
-17 58 6 38 4 44 -23 64 -25 18 -32 35 -51 119 -12 54 -30 125 -40 158 -11 33
-22 78 -26 100 -9 59 -28 82 -71 89 -21 4 -132 17 -246 30 -114 13 -210 26
-213 29 -3 2 1 16 7 31 10 21 10 34 0 61 -7 19 -9 40 -5 46 3 6 31 22 60 35
30 13 54 30 54 38 0 32 -43 66 -125 97 -47 17 -85 36 -85 41 0 16 49 28 126
30 70 1 78 0 95 -23 17 -23 24 -24 148 -27 l130 -4 -6 54 c-8 75 -30 109 -90
138 -55 27 -103 66 -103 85 0 36 -113 83 -222 92 -57 5 -68 3 -68 -9 0 -23
-17 -27 -122 -29 -83 -2 -93 0 -97 16 -5 27 26 45 79 45 50 0 99 25 82 42 -6
6 -46 10 -90 9 -45 -1 -83 3 -87 9 -11 18 40 57 83 65 50 8 62 23 36 42 -14
11 -40 14 -102 11 -76 -4 -85 -3 -97 16 -16 25 -108 283 -159 447 -35 114 -56
149 -90 149 -16 0 -17 6 -11 53 8 67 15 88 24 82 15 -8 21 175 26 769 3 325 8
617 10 649 4 55 4 57 -19 57 -33 0 -43 -17 -59 -91 -20 -93 -44 -136 -101
-182 -48 -37 -103 -67 -125 -67 -29 0 -52 92 -75 290 -11 96 -12 128 -3 137
18 17 433 228 512 259 96 39 304 102 337 103 21 1 28 -5 37 -30z m892 11 c26
-14 24 -45 -3 -65 -13 -8 -50 -24 -83 -34 -55 -17 -68 -18 -154 -6 -108 15
-125 25 -85 51 79 52 269 83 325 54z m379 -95 c0 -19 8 -28 34 -39 19 -8 41
-25 49 -38 111 -183 144 -228 180 -250 66 -40 84 -56 101 -93 27 -56 57 -69
165 -75 l96 -5 -1 -57 c-1 -36 -8 -67 -19 -84 -15 -24 -16 -34 -6 -79 11 -50
30 -263 23 -269 -7 -8 -169 37 -219 60 -71 34 -170 117 -190 160 -10 20 -34
45 -58 59 -23 13 -59 46 -80 72 -91 114 -101 121 -230 162 -66 21 -201 60
-300 86 -99 27 -184 52 -188 55 -12 11 26 80 60 111 61 57 226 159 281 175 48
14 67 15 123 6 36 -6 73 -14 81 -17 12 -5 18 2 23 27 10 43 22 58 51 58 19 0
24 -5 24 -25z m3933 -30 c67 -27 201 -105 253 -148 39 -33 69 -86 83 -147 l9
-42 -26 7 c-15 4 -129 31 -253 61 -125 30 -234 57 -243 60 -24 9 -30 50 -17
118 l11 61 -30 25 c-17 14 -30 28 -30 32 0 11 70 14 130 5 30 -4 81 -19 113
-32z m-4723 -46 c0 -11 -49 -1 -67 14 -7 5 -13 21 -13 34 l0 25 40 -32 c22
-17 40 -36 40 -41z m3686 -215 c102 -34 119 -37 264 -41 85 -3 216 -1 292 5
208 14 273 -4 308 -88 6 -16 19 -30 28 -33 253 -75 278 -86 292 -122 7 -18 23
-28 67 -40 32 -9 63 -18 70 -20 7 -2 10 -18 7 -42 -2 -21 -8 -92 -14 -158 -18
-198 -57 -313 -156 -463 -37 -54 -79 -102 -120 -135 l-64 -52 -36 -115 c-79
-255 -106 -310 -166 -341 -39 -20 -40 -22 -34 -59 9 -56 -2 -64 -120 -95 -5
-2 -16 -34 -23 -71 -24 -133 -70 -205 -162 -254 -34 -18 -65 -42 -71 -56 -6
-13 -14 -24 -17 -24 -3 0 -17 28 -30 63 -43 112 -88 193 -124 220 -64 49 -100
144 -191 509 -47 184 -95 361 -109 394 -28 71 -43 135 -52 222 -6 58 -5 63 12
59 10 -3 43 -13 74 -21 110 -31 216 -131 321 -303 44 -72 55 -83 85 -89 46 -9
67 12 94 93 11 35 27 67 34 70 26 10 102 -36 220 -131 105 -86 123 -97 149
-92 37 8 56 23 56 47 0 25 -15 32 -95 44 l-70 11 -3 47 c-3 44 0 51 32 81 44
40 49 82 12 92 -13 3 -61 -2 -106 -11 -45 -9 -93 -14 -106 -11 -72 18 -7 163
98 217 47 24 53 34 38 70 -12 27 -16 29 -49 23 -20 -4 -58 -14 -86 -23 -46
-15 -52 -21 -90 -89 -54 -98 -76 -122 -115 -122 -41 0 -57 9 -296 166 -138 92
-208 144 -215 161 -5 13 -9 69 -9 123 0 89 -2 100 -20 110 -17 9 -20 21 -20
78 0 37 5 99 10 137 16 109 36 115 206 59z m-2408 -106 c4 -21 -16 -23 -53 -6
-37 17 -31 30 12 26 27 -2 39 -8 41 -20z m4360 -275 c15 -9 60 -41 100 -71 55
-41 72 -60 72 -78 0 -23 -3 -24 -57 -24 -124 0 -183 42 -183 129 0 67 16 77
68 44z m-6693 -218 c0 -16 -8 -21 -42 -23 -49 -4 -56 10 -15 32 35 20 57 16
57 -9z m6898 -55 c11 -10 -81 -30 -138 -30 -41 0 -45 2 -45 25 l0 25 88 -6
c48 -4 91 -10 95 -14z m-7133 1 c0 -14 -28 -33 -40 -26 -20 12 -10 35 15 35
14 0 25 -4 25 -9z m0 -1217 c0 -53 -12 -56 -34 -10 -19 41 -20 53 -3 59 26 9
37 -6 37 -49z m389 -867 c13 -16 5 -27 -21 -27 -11 0 -18 7 -18 20 0 23 22 27
39 7z m-149 -269 c50 -26 70 -52 54 -68 -11 -11 -105 -30 -221 -45 -50 -7 -52
-6 -59 20 -12 46 7 89 46 102 57 20 130 16 180 -9z m218 -300 c7 -7 12 -22 12
-35 0 -18 -6 -23 -25 -23 -26 0 -50 32 -41 56 7 17 38 18 54 2z m882 -238 c0
-163 -27 -262 -76 -280 -51 -20 -66 -97 -89 -435 -16 -248 -28 -332 -49 -353
-12 -12 -20 -8 -55 23 -22 21 -57 63 -76 95 -51 85 -49 126 21 325 116 333
133 388 147 461 11 61 12 74 1 70 -30 -11 18 128 59 173 12 13 36 29 52 36 26
12 33 11 48 -2 14 -13 17 -33 17 -113z m111 -57 c22 -89 24 -164 7 -181 -7 -7
-24 -12 -40 -12 l-28 0 6 113 c9 205 21 222 55 80z m4459 -623 c91 -27 116
-48 129 -111 14 -64 14 -204 0 -230 -13 -25 -34 -11 -44 29 -9 36 -33 62 -59
62 -12 0 -31 3 -43 6 l-21 6 24 35 c38 57 33 73 -24 73 -27 0 -75 -9 -108 -20
-32 -12 -70 -19 -84 -18 -21 3 -25 7 -22 33 5 40 19 55 52 55 24 0 30 6 41 38
6 20 16 43 22 50 14 17 60 15 137 -8z m-4097 -117 c4 -3 2 -12 -4 -20 -13 -15
-139 -19 -139 -4 0 16 129 39 143 24z m3907 -208 c0 -31 21 -54 55 -63 26 -7
30 -14 33 -46 2 -21 -8 -97 -22 -169 -14 -73 -28 -154 -32 -182 -4 -27 -11
-61 -16 -75 -14 -38 -59 -80 -85 -80 -19 0 -22 4 -18 28 5 33 25 382 28 507 2
51 9 101 16 114 13 24 14 24 27 6 8 -10 14 -28 14 -40z m-2209 -27 c48 -24
113 -70 177 -125 l101 -88 -32 -8 c-18 -4 -113 -10 -212 -13 -152 -5 -218 -2
-425 20 -353 38 -410 50 -410 91 0 19 8 24 62 35 49 9 68 19 93 45 16 19 44
39 60 45 65 25 203 39 356 37 l155 -2 75 -37z m2532 -134 c7 -37 -12 -257 -24
-269 -5 -5 -9 1 -9 17 0 53 -29 64 -107 42 -22 -6 -22 -6 -7 56 19 83 37 115
86 150 50 37 54 37 61 4z m1710 -204 c74 -16 195 -77 219 -110 10 -14 20 -39
21 -54 2 -28 0 -30 -83 -53 -158 -44 -285 -75 -365 -89 -95 -17 -530 -30 -666
-20 l-96 8 12 63 c21 112 52 137 266 216 63 23 128 46 144 50 46 12 481 3 548
-11z m-4508 -31 c19 -36 14 -59 -15 -59 -17 0 -20 6 -20 45 0 52 13 58 35 14z
m2770 -86 c-9 -52 -16 -59 -32 -38 -25 35 -10 66 36 74 2 1 0 -16 -4 -36z
m-2941 -71 c-1 -54 -57 -141 -96 -149 -18 -3 -28 -14 -33 -32 -15 -61 -49 -68
-72 -14 -20 50 -12 121 16 145 12 9 46 24 76 33 36 10 60 24 71 41 23 35 39
25 38 -24z m-2214 -110 c30 -30 50 -86 50 -139 0 -38 -21 -53 -73 -53 -40 0
-43 6 -53 118 -10 103 19 131 76 74z"/>
<path d="M7215 10021 c-19 -38 -30 -41 -151 -41 -102 0 -105 -1 -116 -25 -6
-15 -24 -29 -42 -34 -53 -16 117 -13 224 3 143 22 202 53 171 90 -7 8 -25 19
-42 25 -26 9 -30 7 -44 -18z"/>
<path d="M3570 6705 c0 -15 6 -25 14 -25 22 0 30 19 16 35 -18 22 -30 18 -30
-10z"/>
<path d="M550 5271 c0 -73 48 -95 185 -85 90 6 95 8 95 29 0 31 -16 35 -129
35 -84 0 -102 3 -125 21 -26 20 -26 20 -26 0z"/>
<path d="M625 5049 c-22 -5 -50 -11 -62 -14 -28 -6 -30 -36 -5 -57 24 -21 70
-44 114 -56 35 -10 38 -9 50 16 7 15 35 39 61 53 l49 26 -27 22 c-30 23 -103
27 -180 10z"/>
<path d="M675 4728 c-9 -87 -19 -116 -42 -125 -10 -4 -21 -11 -25 -17 -14 -20
-8 -63 11 -80 25 -23 55 -8 69 32 9 25 14 28 41 24 30 -4 61 11 61 29 0 5 -11
14 -24 19 -30 11 -60 54 -53 74 3 8 24 20 46 26 49 13 52 26 11 35 -17 4 -43
18 -59 31 l-29 24 -7 -72z"/>
<path d="M942 4221 c-4 -366 -4 -369 17 -380 16 -9 21 -21 21 -51 0 -41 2 -42
70 -55 19 -4 65 -18 102 -32 73 -27 112 -63 123 -113 8 -38 49 -70 90 -70 61
0 88 -17 117 -73 63 -119 147 -177 173 -119 13 29 34 28 81 -5 21 -15 61 -42
87 -60 65 -44 158 -71 273 -79 l94 -7 0 90 c0 102 -1 103 -74 103 -42 0 -79
18 -106 53 -8 11 -42 72 -75 136 -48 92 -65 117 -83 119 -15 2 -27 14 -33 32
-6 16 -17 31 -25 34 -8 3 -112 22 -231 41 -319 52 -372 71 -373 133 0 27 -1
27 161 2 174 -27 258 -28 277 -4 7 11 19 17 25 15 21 -6 181 -31 197 -31 8 1
-2 7 -23 15 -21 7 -40 15 -42 17 -2 2 7 26 21 54 24 49 36 146 21 171 -4 6
-27 14 -52 18 -36 5 -48 12 -55 31 -13 33 -34 40 -180 64 -188 31 -218 51
-235 152 -3 21 -13 44 -21 52 -26 26 -95 38 -196 34 l-98 -4 -20 43 c-11 24
-21 43 -23 43 -1 0 -4 -166 -5 -369z m768 -198 c14 -13 -82 -45 -107 -36 -19
7 -16 41 5 45 19 5 94 -2 102 -9z"/>
<path d="M553 4185 c3 -11 13 -49 22 -85 9 -36 20 -69 24 -73 12 -12 41 33 48
76 5 32 3 37 -28 52 -19 10 -42 25 -53 34 -17 15 -18 15 -13 -4z"/>
<path d="M703 3820 c-6 -16 -25 -38 -43 -47 -68 -38 -69 -40 -25 -59 32 -14
36 -18 20 -22 -46 -9 -69 -54 -43 -80 15 -15 122 -15 168 1 43 15 51 53 10 51
-14 -1 -33 -4 -42 -8 -16 -7 -17 -5 -6 25 6 19 15 38 19 44 5 5 9 16 9 24 0
19 -40 101 -49 101 -4 0 -12 -13 -18 -30z"/>
<path d="M1524 3225 c-8 -19 3 -35 25 -35 22 0 41 -19 41 -43 0 -11 13 -23 33
-32 19 -8 59 -45 94 -87 59 -73 119 -116 137 -98 13 13 -2 89 -27 139 -20 38
-31 48 -87 71 -36 15 -92 43 -124 63 -65 40 -84 45 -92 22z"/>
<path d="M2050 3096 c0 -30 16 -36 95 -36 79 0 95 6 95 36 0 24 -1 24 -95 24
-94 0 -95 0 -95 -24z"/>
<path d="M2003 2553 c-20 -8 -15 -23 7 -23 11 0 20 7 20 15 0 15 -6 17 -27 8z"/>
<path d="M2386 2273 c-9 -22 5 -34 32 -27 24 7 21 18 -8 34 -14 7 -20 6 -24
-7z"/>
<path d="M2670 4930 c-30 -23 -24 -31 54 -76 l49 -28 -7 38 c-16 86 -45 106
-96 66z"/>
<path d="M10645 7963 c-11 -2 -30 -6 -43 -9 -15 -3 -29 -18 -38 -39 -19 -46
-42 -56 -158 -69 l-99 -11 111 -84 c61 -46 113 -89 116 -96 2 -7 -11 -27 -30
-44 -19 -17 -34 -36 -34 -41 0 -23 44 -50 112 -71 106 -31 137 -50 196 -118
76 -87 115 -107 283 -145 21 -5 29 -15 38 -50 9 -39 22 -54 84 -103 151 -121
209 -177 263 -254 31 -43 79 -99 107 -124 49 -43 54 -45 114 -45 50 0 74 6
120 30 50 26 81 33 223 49 127 15 167 23 176 36 14 19 34 102 34 140 0 29 -24
55 -51 55 -11 0 -24 11 -31 25 -11 25 -50 44 -134 65 -59 15 -62 35 -13 80
l42 38 -6 77 c-4 42 -11 84 -16 93 -7 12 -32 22 -84 30 -41 7 -89 17 -108 22
-33 9 -34 10 -31 59 3 32 -9 101 -33 202 -21 85 -39 155 -40 157 -1 1 -44 9
-96 17 -52 8 -157 29 -234 48 -242 60 -636 102 -740 80z m1 -238 c23 -18 10
-18 -36 0 -32 12 -33 14 -9 14 14 1 34 -6 45 -14z m23 -137 c54 -33 182 -130
178 -135 -6 -5 -122 39 -183 70 -58 29 -79 50 -70 72 8 21 33 19 75 -7z m549
-41 c28 -13 44 -28 48 -44 4 -13 4 -26 2 -29 -7 -6 -167 89 -168 99 0 12 69
-3 118 -26z m-210 -48 c77 -19 72 -29 -15 -29 -55 0 -84 4 -92 13 -23 29 25
36 107 16z m583 -5 c102 -19 130 -36 75 -45 -46 -7 -129 5 -178 27 -80 36 -32
44 103 18z m-257 -166 c-30 -59 -30 -59 -95 -30 -33 15 -60 32 -60 37 0 11 53
21 124 24 l48 1 -17 -32z m408 -484 c35 -6 37 -8 31 -38 -13 -71 -42 -92 -103
-76 -52 14 -58 27 -18 43 l33 14 -33 19 c-71 41 -72 43 -7 44 33 0 77 -3 97
-6z"/>
<path d="M1335 70 c-3 -5 1 -10 9 -10 9 0 16 5 16 10 0 6 -4 10 -9 10 -6 0
-13 -4 -16 -10z"/>
</g>
</svg>
